<svg xmlns="http://www.w3.org/2000/svg" xmlns:xlink="http://www.w3.org/1999/xlink" width="40" zoomAndPan="magnify" viewBox="0 0 30 30.000001" height="40" preserveAspectRatio="xMidYMid meet" version="1.0"><defs><clipPath id="9af75a0872"><path d="M 4.710938 2.175781 L 25.035156 2.175781 L 25.035156 26.855469 L 4.710938 26.855469 Z M 4.710938 2.175781 " clip-rule="nonzero"/></clipPath></defs><path fill="#000000" d="M 14.875 22.742188 C 14.742188 22.742188 14.613281 22.691406 14.515625 22.59375 L 11.46875 19.503906 C 11.269531 19.304688 11.269531 18.984375 11.46875 18.78125 C 11.667969 18.582031 11.984375 18.582031 12.183594 18.78125 L 14.875 21.5 L 17.5625 18.78125 C 17.761719 18.582031 18.078125 18.582031 18.277344 18.78125 C 18.476562 18.984375 18.476562 19.304688 18.277344 19.503906 L 15.230469 22.59375 C 15.136719 22.691406 15.003906 22.742188 14.875 22.742188 " fill-opacity="1" fill-rule="nonzero"/><path fill="#000000" d="M 14.875 22.742188 C 14.59375 22.742188 14.367188 22.511719 14.367188 22.226562 L 14.367188 15.03125 C 14.367188 14.746094 14.59375 14.515625 14.875 14.515625 C 15.15625 14.515625 15.382812 14.746094 15.382812 15.03125 L 15.382812 22.226562 C 15.382812 22.511719 15.15625 22.742188 14.875 22.742188 " fill-opacity="1" fill-rule="nonzero"/><g clip-path="url(#9af75a0872)"><path fill="#000000" d="M 8.652344 10.152344 C 7.152344 11.75 5.730469 14.234375 5.730469 17.085938 C 5.730469 20.71875 8.570312 25.828125 14.875 25.828125 C 21.53125 25.828125 24.015625 20.464844 24.015625 17.085938 C 24.015625 15.738281 23.730469 14.835938 23.453125 13.96875 C 23.210938 13.21875 22.980469 12.503906 22.980469 11.609375 C 22.980469 10.898438 23.304688 10.085938 23.605469 9.488281 C 21.925781 9.75 21.5625 10.765625 21.214844 11.753906 C 20.941406 12.523438 20.597656 13.488281 19.460938 13.488281 C 17.574219 13.488281 17.441406 11.847656 17.308594 10.265625 C 17.113281 7.890625 16.871094 4.976562 12.324219 3.503906 C 13.699219 6.417969 14.421875 10.378906 13.351562 12.296875 C 12.910156 13.074219 12.210938 13.488281 11.328125 13.488281 C 10.472656 13.488281 9.804688 13.191406 9.335938 12.605469 C 8.789062 11.914062 8.652344 10.945312 8.652344 10.152344 Z M 14.875 26.855469 C 7.867188 26.855469 4.714844 21.144531 4.714844 17.085938 C 4.714844 13.265625 7.003906 10.054688 8.96875 8.460938 C 9.136719 8.324219 9.371094 8.3125 9.554688 8.421875 C 9.734375 8.539062 9.828125 8.757812 9.785156 8.96875 C 9.664062 9.53125 9.488281 11.164062 10.128906 11.960938 C 10.394531 12.296875 10.785156 12.460938 11.328125 12.460938 C 11.847656 12.460938 12.207031 12.246094 12.464844 11.785156 C 13.375 10.167969 12.605469 5.871094 10.882812 2.957031 C 10.777344 2.78125 10.785156 2.554688 10.910156 2.390625 C 11.027344 2.222656 11.234375 2.144531 11.433594 2.191406 C 17.777344 3.695312 18.105469 7.601562 18.320312 10.179688 C 18.472656 11.996094 18.605469 12.460938 19.460938 12.460938 C 19.832031 12.460938 19.960938 12.246094 20.257812 11.402344 C 20.683594 10.207031 21.324219 8.394531 24.523438 8.394531 C 24.710938 8.394531 24.882812 8.5 24.972656 8.667969 C 25.058594 8.832031 25.050781 9.039062 24.945312 9.195312 C 24.683594 9.597656 23.996094 10.8125 23.996094 11.609375 C 23.996094 12.34375 24.191406 12.949219 24.417969 13.652344 C 24.707031 14.550781 25.03125 15.574219 25.03125 17.085938 C 25.03125 21.820312 21.472656 26.855469 14.875 26.855469 " fill-opacity="1" fill-rule="nonzero"/></g></svg>