<svg xmlns="http://www.w3.org/2000/svg" xmlns:xlink="http://www.w3.org/1999/xlink" width="500" zoomAndPan="magnify" viewBox="0 0 375 374.999991" height="500" preserveAspectRatio="xMidYMid meet" version="1.0"><defs><g/><clipPath id="e72c8c9a61"><path d="M 46 78.890625 L 336 78.890625 L 336 263 L 46 263 Z M 46 78.890625 " clip-rule="nonzero"/></clipPath><clipPath id="40cc05a6fa"><path d="M 102 36.933594 L 249.8125 36.933594 L 249.8125 230.984375 L 102 230.984375 Z M 102 36.933594 " clip-rule="nonzero"/></clipPath></defs><g clip-path="url(#e72c8c9a61)"><path fill="#fff9e1" d="M 278.414062 78.910156 C 356.09375 86.863281 349.542969 152.832031 288.757812 201.28125 C 235.84375 244.378906 164.730469 265.957031 113.449219 262.445312 C 22.496094 255.738281 28.21875 181.097656 110.316406 127.050781 C 163.558594 92.722656 39.921875 163.234375 53.089844 219.265625 C 58.097656 249.617188 100.453125 256.882812 131.332031 255.59375 C 282.265625 247.550781 407.289062 99.96875 278.414062 78.910156 Z M 278.414062 78.910156 " fill-opacity="1" fill-rule="nonzero"/></g><path fill="#ffcc6d" d="M 277.292969 101.277344 C 327.628906 111.027344 303.148438 168.429688 238.714844 199.003906 C 285.0625 167.660156 329.492188 120.386719 277.292969 101.277344 Z M 277.292969 101.277344 " fill-opacity="1" fill-rule="nonzero"/><g clip-path="url(#40cc05a6fa)"><path fill="#65eeff" d="M 196.132812 44.816406 C 195.996094 44.816406 195.339844 45.511719 195.339844 45.648438 C 195.335938 45.726562 195.265625 45.921875 195.175781 46.082031 C 194.929688 46.550781 194.285156 48.742188 194.28125 49.121094 C 194.277344 49.316406 194.324219 49.613281 194.378906 49.796875 C 194.433594 49.980469 194.589844 50.519531 194.722656 50.992188 C 194.859375 51.460938 195.003906 51.957031 195.058594 52.082031 C 195.117188 52.207031 195.296875 52.644531 195.464844 53.058594 C 195.738281 53.746094 195.894531 54.089844 195.980469 54.089844 C 196.066406 54.089844 196.078125 53.730469 196.058594 53.003906 C 196.03125 52.238281 195.957031 51.628906 195.867188 51.457031 C 195.765625 51.261719 195.699219 50.621094 195.675781 49.453125 C 195.652344 47.953125 195.679688 47.644531 195.890625 47.003906 C 196.03125 46.601562 196.136719 46.191406 196.136719 46.089844 C 196.136719 45.972656 196.21875 45.792969 196.3125 45.667969 C 196.519531 45.40625 196.53125 45.140625 196.351562 44.957031 C 196.273438 44.875 196.179688 44.816406 196.136719 44.816406 Z M 185.238281 55.347656 C 185.066406 55.347656 184.613281 55.824219 184.261719 56.375 L 184.039062 56.75 L 184.292969 56.75 C 184.695312 56.75 185.574219 55.46875 185.265625 55.351562 C 185.257812 55.347656 185.25 55.347656 185.238281 55.347656 Z M 195.929688 59.476562 C 195.859375 59.476562 195.804688 59.519531 195.804688 59.589844 C 195.804688 59.648438 195.824219 59.703125 195.847656 59.703125 C 195.882812 59.703125 195.941406 59.648438 195.976562 59.589844 C 196.011719 59.523438 195.988281 59.476562 195.929688 59.476562 Z M 207.769531 36.929688 C 208.902344 36.929688 209.554688 36.972656 209.949219 37.078125 C 210.292969 37.160156 211.296875 37.386719 212.179688 37.566406 C 213.632812 37.851562 214.578125 38.203125 215.136719 38.652344 C 215.207031 38.710938 215.457031 38.792969 215.707031 38.828125 C 216.40625 38.960938 218.226562 40.269531 218.691406 40.972656 C 218.90625 41.28125 219.078125 41.628906 219.074219 41.730469 C 219.074219 41.820312 219.175781 42.097656 219.300781 42.328125 C 219.425781 42.570312 219.527344 42.832031 219.523438 42.914062 C 219.523438 43.121094 219.949219 44.40625 220.1875 44.875 C 220.703125 45.933594 221.089844 49.453125 220.839844 50.847656 C 220.5625 52.347656 220.5625 52.414062 220.777344 52.988281 C 220.886719 53.289062 221.125 53.773438 221.292969 54.058594 C 222.152344 55.484375 222.289062 55.773438 222.410156 56.347656 C 222.554688 57.058594 222.492188 57.882812 222.257812 58.144531 C 222.179688 58.234375 221.753906 58.496094 221.316406 58.699219 L 220.511719 59.082031 L 220.496094 59.757812 C 220.46875 60.261719 220.398438 60.511719 220.210938 60.75 C 220.074219 60.921875 219.957031 61.160156 219.957031 61.277344 C 219.953125 61.734375 219.59375 62.382812 219.269531 62.519531 C 218.789062 62.710938 218.5 63.175781 218.425781 63.898438 C 218.328125 64.675781 218.023438 65.339844 217.597656 65.644531 C 217.355469 65.816406 217.179688 65.867188 216.464844 65.867188 C 216.328125 65.867188 216.171875 65.863281 215.992188 65.859375 L 214.710938 65.851562 L 213.625 65.304688 C 213.03125 65 212.472656 64.675781 212.371094 64.597656 C 212.164062 64.40625 211.703125 64.269531 211.371094 64.269531 C 211.28125 64.269531 211.199219 64.277344 211.136719 64.300781 C 211 64.355469 210.46875 64.789062 209.949219 65.277344 C 209.175781 66.003906 208.933594 66.34375 208.433594 67.304688 C 207.886719 68.351562 207.628906 69.152344 207.449219 70.410156 C 207.375 70.867188 207.398438 70.925781 207.863281 71.421875 C 208.136719 71.722656 208.671875 72.171875 209.035156 72.4375 C 209.777344 72.972656 210.550781 73.734375 210.648438 74.042969 C 210.726562 74.308594 211.664062 74.839844 212.347656 75.019531 C 214.933594 75.679688 215.945312 76.257812 216.453125 77.386719 C 216.554688 77.605469 216.746094 77.972656 216.882812 78.203125 C 217.628906 79.480469 217.867188 79.917969 218.089844 80.492188 C 218.226562 80.835938 218.425781 81.328125 218.539062 81.582031 C 218.640625 81.835938 218.84375 82.5 218.976562 83.074219 C 219.109375 83.636719 219.285156 84.359375 219.375 84.679688 C 219.464844 84.992188 219.609375 85.65625 219.695312 86.148438 C 219.828125 86.847656 219.960938 87.207031 220.359375 87.816406 C 220.640625 88.242188 221.015625 88.851562 221.183594 89.171875 C 221.367188 89.484375 221.660156 90.023438 221.851562 90.359375 C 222.03125 90.691406 222.304688 91.140625 222.425781 91.347656 C 222.5625 91.554688 222.710938 91.84375 222.753906 91.980469 C 222.800781 92.128906 222.992188 92.453125 223.195312 92.714844 C 223.492188 93.121094 223.941406 94.027344 224.785156 95.945312 C 224.875 96.128906 224.976562 96.417969 225.011719 96.578125 C 225.109375 96.96875 225.761719 98.40625 226.429688 99.660156 L 226.621094 100.039062 L 226.792969 99.789062 C 226.898438 99.652344 227.359375 99.152344 227.824219 98.671875 C 228.285156 98.195312 229.011719 97.445312 229.425781 97.011719 C 229.84375 96.570312 230.421875 96.011719 230.707031 95.761719 C 231.367188 95.171875 232.683594 93.523438 233.402344 92.371094 C 233.714844 91.871094 234.027344 91.449219 234.109375 91.414062 C 234.246094 91.371094 235.660156 89.296875 235.660156 89.160156 C 235.660156 89.125 235.871094 88.804688 236.113281 88.441406 C 236.832031 87.402344 237.832031 85.40625 237.917969 84.835938 C 237.976562 84.480469 237.945312 84.113281 237.84375 83.757812 C 237.742188 83.460938 237.644531 82.75 237.617188 82.1875 C 237.585938 81.613281 237.476562 80.871094 237.386719 80.523438 C 237.300781 80.179688 237.222656 79.539062 237.226562 79.105469 C 237.234375 78.394531 237.28125 78.234375 237.6875 77.539062 C 237.929688 77.117188 238.175781 76.601562 238.222656 76.386719 C 238.269531 76.179688 238.351562 75.953125 238.398438 75.894531 C 238.445312 75.824219 238.515625 75.539062 238.5625 75.253906 C 238.609375 74.96875 238.785156 74.429688 238.972656 74.054688 C 239.148438 73.691406 239.335938 73.128906 239.371094 72.832031 C 239.421875 72.476562 239.59375 72.089844 239.828125 71.769531 C 240.144531 71.335938 240.238281 71.273438 240.613281 71.273438 C 240.625 71.273438 240.632812 71.273438 240.644531 71.273438 C 241.042969 71.277344 241.179688 71.347656 241.601562 71.796875 C 241.910156 72.125 242.042969 72.242188 242.175781 72.242188 C 242.226562 72.242188 242.28125 72.222656 242.34375 72.191406 C 242.457031 72.132812 242.683594 72.105469 242.949219 72.105469 C 243.496094 72.105469 244.191406 72.214844 244.367188 72.378906 C 244.503906 72.503906 244.78125 72.566406 245.273438 72.570312 C 245.925781 72.574219 246.015625 72.609375 246.378906 72.964844 C 246.597656 73.1875 246.777344 73.417969 246.777344 73.484375 C 246.777344 73.554688 246.890625 73.613281 247.015625 73.613281 C 247.152344 73.613281 247.449219 73.730469 247.691406 73.859375 C 248.144531 74.113281 248.15625 74.160156 248.433594 75.535156 C 248.453125 75.683594 248.613281 75.824219 248.855469 75.90625 C 249.6875 76.1875 249.761719 77.070312 249.210938 80.273438 C 249.066406 81.097656 248.902344 81.519531 248.089844 83.070312 C 247.378906 84.449219 246.972656 85.078125 246.453125 85.632812 C 246.074219 86.042969 245.679688 86.554688 245.574219 86.773438 C 245.46875 86.988281 245.238281 87.320312 245.066406 87.511719 C 244.878906 87.695312 244.554688 88.160156 244.335938 88.539062 C 244.117188 88.914062 243.664062 89.679688 243.328125 90.25 C 242.5625 91.503906 242.050781 92.484375 242.046875 92.667969 C 242.046875 92.882812 241.230469 94.503906 240.953125 94.847656 C 240.816406 95.015625 240.523438 95.542969 240.316406 96.007812 C 239.804688 97.105469 239.070312 98.578125 238.769531 99.089844 C 238.640625 99.304688 238.453125 99.683594 238.371094 99.921875 C 238.289062 100.152344 238.09375 100.515625 237.941406 100.722656 C 237.78125 100.914062 237.558594 101.289062 237.445312 101.542969 C 237.328125 101.792969 236.980469 102.429688 236.664062 102.96875 C 236.351562 103.503906 235.945312 104.222656 235.773438 104.5625 C 235.585938 104.90625 235.261719 105.382812 235.042969 105.625 C 234.824219 105.863281 234.3125 106.511719 233.90625 107.09375 C 233.515625 107.660156 232.84375 108.492188 232.417969 108.9375 C 231.203125 110.1875 229.492188 112.394531 228.785156 113.605469 C 228.402344 114.246094 227.773438 114.574219 227.023438 114.574219 C 226.441406 114.574219 225.792969 114.382812 225.128906 113.988281 C 224.695312 113.734375 224.296875 113.523438 224.25 113.523438 C 224.203125 113.523438 224.089844 113.441406 224.011719 113.335938 C 223.929688 113.234375 223.761719 113.105469 223.625 113.046875 C 222.253906 112.429688 221.503906 111.808594 220.34375 110.34375 C 220.039062 109.964844 219.652344 109.558594 219.492188 109.433594 C 219.074219 109.121094 217.925781 107.792969 217.5625 107.207031 C 217.394531 106.941406 216.871094 106.273438 216.394531 105.707031 C 215.917969 105.15625 215.386719 104.429688 215.21875 104.121094 C 215.035156 103.796875 214.539062 103.058594 214.097656 102.460938 C 213.652344 101.875 213.144531 101.148438 212.953125 100.835938 C 212.769531 100.539062 212.410156 99.984375 212.160156 99.605469 C 211.910156 99.226562 211.648438 98.8125 211.582031 98.695312 C 211.527344 98.605469 211.492188 98.558594 211.4375 98.558594 C 211.367188 98.558594 211.269531 98.644531 211.066406 98.832031 C 210.523438 99.328125 209.175781 100.15625 208.511719 100.390625 C 208.199219 100.503906 207.316406 100.65625 206.550781 100.730469 C 205.015625 100.878906 204.472656 101.082031 204.183594 101.640625 C 203.800781 102.371094 202.480469 104.285156 202.03125 104.761719 C 201.765625 105.046875 201.3125 105.625 201.023438 106.070312 C 200.734375 106.503906 199.878906 107.527344 199.105469 108.324219 C 197.671875 109.8125 197.464844 110.109375 196.824219 111.59375 C 196.625 112.0625 196.273438 112.839844 196.042969 113.304688 C 195.820312 113.773438 195.53125 114.390625 195.402344 114.6875 L 195.179688 115.199219 L 195.613281 115.339844 C 195.855469 115.421875 196.117188 115.480469 196.175781 115.484375 C 196.242188 115.484375 196.585938 115.613281 196.929688 115.773438 C 197.269531 115.9375 197.613281 116.066406 197.695312 116.066406 C 197.773438 116.066406 198.082031 116.195312 198.402344 116.335938 C 198.710938 116.488281 199.246094 116.652344 199.589844 116.6875 C 199.933594 116.738281 200.265625 116.820312 200.332031 116.890625 C 200.390625 116.945312 200.550781 117.003906 200.6875 117.007812 C 200.894531 117.007812 202.046875 117.324219 202.859375 117.617188 C 203.039062 117.6875 203.429688 117.816406 203.714844 117.921875 C 204 118.015625 204.367188 118.203125 204.535156 118.320312 C 204.695312 118.433594 204.890625 118.527344 204.957031 118.527344 C 205.027344 118.527344 205.277344 118.632812 205.507812 118.761719 C 205.746094 118.890625 206.019531 118.996094 206.113281 118.996094 C 206.214844 118.996094 206.398438 119.078125 206.523438 119.171875 C 206.636719 119.261719 206.820312 119.34375 206.910156 119.34375 C 207.003906 119.34375 207.277344 119.449219 207.515625 119.578125 C 207.742188 119.707031 208.019531 119.8125 208.109375 119.8125 C 208.203125 119.8125 208.679688 120.023438 209.160156 120.289062 C 209.648438 120.546875 210.359375 120.894531 210.734375 121.058594 C 211.109375 121.222656 211.863281 121.652344 212.410156 122.019531 C 212.96875 122.390625 213.515625 122.738281 213.640625 122.777344 C 214.03125 122.90625 215.605469 123.785156 216.445312 124.34375 C 216.878906 124.632812 217.359375 124.933594 217.519531 125.015625 C 217.679688 125.085938 218.109375 125.410156 218.484375 125.734375 C 218.863281 126.046875 219.375 126.414062 219.625 126.554688 C 220.070312 126.800781 221.1875 127.597656 221.480469 127.898438 C 221.742188 128.164062 222.5625 128.695312 223.179688 129.011719 C 223.5 129.183594 224.171875 129.71875 224.671875 130.214844 C 225.160156 130.710938 225.695312 131.230469 225.839844 131.355469 C 226.25 131.726562 226.625 132.175781 226.625 132.289062 C 226.625 132.347656 226.796875 132.453125 227 132.53125 C 227.378906 132.671875 227.761719 133.25 227.757812 133.683594 C 227.757812 133.789062 227.871094 134.0625 228.007812 134.28125 C 228.367188 134.855469 228.640625 135.464844 229.007812 136.546875 C 229.367188 137.589844 229.398438 137.878906 229.179688 138.300781 C 229.085938 138.457031 228.980469 138.765625 228.945312 138.984375 C 228.835938 139.476562 224.917969 147.132812 224.316406 147.996094 C 224.085938 148.339844 223.851562 148.75 223.804688 148.910156 C 223.675781 149.320312 223.1875 150.257812 222.757812 150.90625 C 222.261719 151.65625 221.820312 152.410156 221.597656 152.890625 C 221.503906 153.105469 221.191406 153.539062 220.914062 153.859375 C 220.648438 154.175781 220.289062 154.644531 220.128906 154.894531 C 219.964844 155.144531 219.5625 155.597656 219.238281 155.917969 C 218.914062 156.222656 218.648438 156.519531 218.648438 156.578125 C 218.648438 156.785156 217.433594 158.421875 216.695312 159.21875 C 216.265625 159.6875 215.816406 160.253906 215.6875 160.496094 C 215.570312 160.734375 214.808594 161.5625 214.011719 162.347656 C 213.214844 163.132812 212.429688 163.972656 212.269531 164.226562 C 211.957031 164.714844 211.550781 165.148438 210.894531 165.703125 C 210.675781 165.882812 210.351562 166.25 210.191406 166.5 C 210.027344 166.75 209.667969 167.183594 209.402344 167.457031 C 209.136719 167.738281 208.699219 168.230469 208.433594 168.546875 C 208.179688 168.867188 207.703125 169.410156 207.40625 169.753906 C 206.871094 170.367188 206.628906 170.6875 205.519531 172.269531 C 205.21875 172.703125 204.929688 173.042969 204.882812 173.042969 C 204.824219 173.042969 204.777344 173.113281 204.777344 173.191406 C 204.777344 173.285156 204.671875 173.441406 204.546875 173.554688 C 204.417969 173.671875 204.316406 173.808594 204.316406 173.851562 C 204.316406 173.898438 204.011719 174.34375 203.644531 174.832031 C 203.285156 175.320312 202.808594 176.0625 202.597656 176.484375 C 202.390625 176.90625 202.113281 177.304688 201.996094 177.375 C 201.6875 177.53125 201.707031 177.703125 202.082031 178.175781 C 202.265625 178.394531 202.433594 178.671875 202.480469 178.773438 C 202.535156 178.925781 202.671875 178.980469 203.027344 178.984375 L 203.496094 178.988281 L 203.425781 179.46875 C 203.328125 180.167969 203.328125 180.144531 203.449219 180.648438 C 203.695312 181.613281 203.476562 183.222656 203.109375 183.222656 C 202.914062 183.222656 202.738281 183.65625 202.816406 183.964844 C 202.851562 184.125 202.941406 184.253906 202.996094 184.253906 C 203.148438 184.253906 203.589844 184.75 203.894531 185.234375 C 204.144531 185.636719 204.171875 186.574219 203.949219 187.007812 C 203.832031 187.25 203.339844 187.578125 202.902344 187.722656 C 202.808594 187.757812 203.046875 188.308594 203.578125 189.296875 C 203.65625 189.457031 203.835938 189.824219 203.972656 190.136719 C 204.117188 190.433594 204.320312 190.769531 204.4375 190.871094 C 204.550781 190.976562 204.640625 191.21875 204.636719 191.414062 C 204.636719 191.605469 204.738281 191.917969 204.863281 192.113281 C 204.984375 192.308594 205.085938 192.652344 205.085938 192.894531 C 205.082031 193.144531 205.160156 193.511719 205.261719 193.730469 C 205.453125 194.144531 206.339844 195.101562 206.828125 195.4375 C 206.988281 195.542969 207.398438 195.890625 207.726562 196.199219 C 208.375 196.8125 209.515625 197.703125 209.652344 197.703125 C 209.707031 197.703125 209.902344 197.945312 210.082031 198.246094 C 210.375 198.71875 210.421875 198.890625 210.414062 199.601562 C 210.414062 200.046875 210.351562 200.46875 210.292969 200.527344 C 210.226562 200.59375 210.117188 200.949219 210.058594 201.316406 C 209.914062 202.171875 209.742188 202.414062 208.960938 202.851562 C 208.496094 203.113281 208.359375 203.1875 207.847656 203.1875 C 207.648438 203.1875 207.390625 203.175781 207.03125 203.160156 C 206.253906 203.117188 205.636719 203.035156 205.464844 202.941406 C 205.304688 202.847656 204.953125 202.742188 204.664062 202.695312 C 203.875 202.574219 202.8125 202.257812 202.324219 202 C 202.070312 201.871094 201.773438 201.765625 201.660156 201.765625 C 201.546875 201.765625 201.15625 201.578125 200.804688 201.359375 C 200.441406 201.148438 199.914062 200.90625 199.605469 200.824219 C 199.242188 200.726562 198.933594 200.554688 198.636719 200.230469 C 198.332031 199.917969 198.046875 199.746094 197.691406 199.664062 C 197.015625 199.507812 196.707031 199.277344 196.519531 198.804688 C 196.339844 198.378906 195.847656 198.054688 195.367188 198.050781 C 194.976562 198.050781 194.648438 197.863281 194.316406 197.472656 C 194.171875 197.289062 193.773438 196.988281 193.417969 196.789062 C 193.078125 196.582031 192.757812 196.335938 192.722656 196.234375 C 192.691406 196.140625 192.40625 195.945312 192.109375 195.804688 C 191.8125 195.675781 191.320312 195.328125 191.015625 195.042969 C 190.71875 194.753906 190.230469 194.417969 189.933594 194.3125 C 189.316406 194.066406 188.015625 193.242188 188.019531 193.082031 C 188.019531 193.023438 187.472656 192.710938 186.785156 192.375 C 186.113281 192.046875 185.382812 191.609375 185.167969 191.398438 C 184.953125 191.191406 184.371094 190.765625 183.871094 190.449219 C 183.378906 190.136719 182.890625 189.746094 182.765625 189.582031 C 182.652344 189.421875 182.128906 188.984375 181.59375 188.625 C 179.964844 187.511719 179.191406 186.542969 179.199219 185.640625 C 179.203125 185.148438 179.25 185.054688 179.664062 184.703125 C 179.917969 184.488281 180.253906 184.285156 180.414062 184.238281 C 180.574219 184.207031 180.792969 184.152344 180.894531 184.117188 C 181.007812 184.09375 181.101562 183.96875 181.101562 183.832031 C 181.105469 183.707031 181.1875 183.464844 181.265625 183.308594 C 181.359375 183.136719 181.535156 182.804688 181.640625 182.566406 C 181.746094 182.324219 182.046875 181.960938 182.296875 181.769531 C 182.539062 181.566406 182.992188 181.0625 183.269531 180.632812 C 183.894531 179.71875 186.054688 177.539062 186.710938 177.152344 C 186.960938 177.007812 187.480469 176.585938 187.863281 176.234375 C 188.761719 175.390625 189.042969 175.214844 189.515625 175.214844 C 189.519531 175.214844 189.523438 175.214844 189.53125 175.214844 C 189.542969 175.214844 189.550781 175.214844 189.5625 175.214844 C 190.003906 175.214844 190.109375 175.140625 190.324219 174.765625 C 190.40625 174.605469 190.878906 173.945312 191.378906 173.285156 C 191.875 172.621094 192.441406 171.78125 192.652344 171.402344 C 192.859375 171.027344 193.21875 170.503906 193.449219 170.242188 C 194.085938 169.511719 194.386719 169.101562 194.386719 168.941406 C 194.390625 168.863281 194.460938 168.714844 194.539062 168.625 C 194.679688 168.453125 195.828125 166.582031 196.257812 165.820312 C 196.699219 165.03125 197.871094 162.683594 197.875 162.589844 C 197.875 162.523438 198.105469 162.203125 198.382812 161.871094 C 198.660156 161.53125 198.925781 161.132812 198.972656 160.972656 C 199.019531 160.8125 199.148438 160.480469 199.265625 160.230469 C 199.707031 159.273438 199.835938 158.953125 200.058594 158.230469 C 200.1875 157.820312 200.332031 157.226562 200.378906 156.917969 C 200.429688 156.597656 200.535156 156.175781 200.628906 155.957031 C 200.71875 155.753906 200.792969 155.433594 200.792969 155.25 C 200.796875 154.757812 201.335938 153.292969 202.03125 151.890625 C 202.183594 151.570312 202.3125 151.230469 202.3125 151.125 C 202.316406 151.023438 202.371094 150.898438 202.441406 150.863281 C 202.5 150.816406 202.683594 150.5 202.847656 150.144531 C 203.011719 149.78125 203.1875 149.414062 203.242188 149.324219 C 203.300781 149.230469 203.511719 148.878906 203.707031 148.558594 C 203.90625 148.230469 204.160156 147.898438 204.273438 147.820312 C 204.378906 147.742188 204.609375 147.445312 204.773438 147.160156 C 205.214844 146.417969 207.398438 143.777344 208.066406 143.175781 C 208.621094 142.664062 209.140625 141.96875 209.144531 141.707031 C 209.144531 141.476562 208.117188 141.101562 207.042969 140.933594 C 206.570312 140.855469 206.140625 140.804688 205.996094 140.804688 C 205.96875 140.804688 205.949219 140.808594 205.945312 140.8125 C 205.9375 140.816406 205.914062 140.816406 205.878906 140.816406 C 205.6875 140.816406 205.128906 140.769531 204.5 140.6875 C 203.3125 140.527344 189.710938 140.058594 185.472656 140.023438 L 184.304688 140.015625 L 184.304688 139.683594 C 184.308594 139.351562 184.113281 139.210938 183.382812 139.046875 L 183.097656 138.988281 L 183.105469 142.273438 C 183.117188 144.082031 183.078125 145.960938 183.039062 146.453125 C 182.941406 147.488281 182.824219 147.699219 181.84375 147.699219 C 181.699219 147.699219 181.535156 147.695312 181.347656 147.6875 C 181.0625 147.675781 180.832031 147.667969 180.648438 147.667969 C 179.921875 147.667969 179.890625 147.796875 179.886719 148.351562 C 179.886719 148.664062 179.777344 149.210938 179.660156 149.566406 C 179.53125 149.929688 179.402344 150.46875 179.351562 150.765625 C 179.316406 151.0625 179.234375 151.335938 179.164062 151.371094 C 179.109375 151.417969 179.0625 151.589844 179.058594 151.761719 C 179.058594 152.09375 178.445312 154.011719 178.179688 154.511719 C 178.003906 154.855469 177.585938 155.941406 177.476562 156.339844 C 177.441406 156.5 177.359375 156.730469 177.300781 156.855469 C 177.242188 156.980469 177.046875 157.515625 176.847656 158.054688 C 176.414062 159.277344 175.910156 160.472656 175.773438 160.609375 C 175.714844 160.679688 175.667969 160.792969 175.667969 160.886719 C 175.667969 161.023438 175.234375 161.957031 174.96875 162.390625 C 174.910156 162.480469 174.703125 162.949219 174.492188 163.417969 C 174.28125 163.886719 173.96875 164.582031 173.792969 164.960938 C 173.617188 165.335938 173.359375 165.976562 173.21875 166.386719 C 172.878906 167.378906 172.308594 168.566406 172.113281 168.714844 C 172.023438 168.78125 171.8125 169.214844 171.648438 169.671875 C 171.484375 170.140625 171.136719 170.835938 170.890625 171.222656 C 170.636719 171.625 170.429688 171.988281 170.429688 172.058594 C 170.425781 172.113281 170.242188 172.457031 170.019531 172.820312 C 169.800781 173.1875 169.613281 173.539062 169.613281 173.609375 C 169.613281 173.664062 169.207031 174.304688 168.710938 175.019531 C 168.222656 175.738281 167.761719 176.410156 167.703125 176.515625 C 166.414062 178.53125 164.890625 180.273438 164.003906 180.6875 C 163.753906 180.8125 163.523438 180.949219 163.488281 180.984375 C 163.453125 181.027344 163.234375 181.152344 163.003906 181.265625 C 162.761719 181.390625 162.246094 181.636719 161.855469 181.828125 C 161.199219 182.15625 159.710938 182.65625 159.433594 182.65625 L 159.429688 182.65625 C 159.339844 182.65625 157.039062 183.761719 155.949219 184.324219 C 155.832031 184.382812 155.5 184.527344 155.214844 184.640625 C 154.15625 185.046875 153.652344 185.28125 153.203125 185.585938 C 152.394531 186.132812 151.453125 186.71875 151.382812 186.71875 C 151.300781 186.71875 150.785156 187.058594 149.875 187.726562 C 149.496094 188 148.917969 188.382812 148.585938 188.574219 C 148.253906 188.769531 147.664062 189.164062 147.285156 189.457031 C 146.894531 189.765625 146.558594 190.003906 146.535156 190.003906 C 146.511719 190.003906 145.777344 190.476562 144.890625 191.054688 C 144.015625 191.621094 143.015625 192.21875 142.667969 192.378906 C 142.324219 192.535156 141.933594 192.773438 141.804688 192.910156 C 141.679688 193.046875 141.207031 193.339844 140.769531 193.578125 C 140.324219 193.804688 139.804688 194.074219 139.621094 194.1875 C 139.425781 194.300781 139.136719 194.414062 138.964844 194.457031 C 138.804688 194.492188 138.160156 194.851562 137.539062 195.257812 C 136.917969 195.667969 136.378906 195.996094 136.34375 195.996094 C 136.296875 195.996094 135.882812 196.277344 135.410156 196.617188 C 134.9375 196.957031 134.074219 197.476562 133.488281 197.769531 C 132.742188 198.144531 132.328125 198.414062 132.140625 198.675781 C 132.003906 198.894531 131.402344 199.460938 130.804688 199.9375 C 130.203125 200.425781 129.476562 201.050781 129.1875 201.332031 C 127.910156 202.539062 127.160156 203.207031 126.90625 203.367188 C 126.539062 203.605469 123.988281 206.09375 123.015625 207.171875 C 122.128906 208.164062 121.871094 208.5625 121.753906 209.191406 L 121.667969 209.601562 L 122.175781 209.503906 C 122.5 209.445312 122.804688 209.414062 123.058594 209.414062 C 123.417969 209.414062 123.6875 209.472656 123.800781 209.59375 C 123.902344 209.6875 124.015625 209.976562 124.046875 210.214844 L 124.113281 210.652344 L 124.539062 210.507812 C 124.765625 210.425781 125.125 210.269531 125.34375 210.15625 C 125.511719 210.074219 125.671875 210.035156 125.8125 210.035156 C 126.320312 210.035156 126.585938 210.5 126.125 210.953125 C 125.976562 211.101562 125.597656 211.316406 125.285156 211.429688 C 124.964844 211.539062 124.632812 211.699219 124.539062 211.765625 C 124.273438 211.96875 123.230469 212.15625 122.324219 212.160156 C 122.304688 212.160156 122.285156 212.160156 122.265625 212.160156 C 121.699219 212.160156 121.402344 212.226562 121.15625 212.382812 C 120.960938 212.496094 120.730469 212.628906 120.636719 212.664062 C 119.0625 213.304688 119.019531 213.351562 118.621094 214.433594 C 118.515625 214.730469 118.179688 215.394531 117.851562 215.90625 C 117.539062 216.417969 117.285156 216.863281 117.285156 216.898438 C 117.285156 216.933594 117.097656 217.332031 116.875 217.789062 C 116.65625 218.246094 116.46875 218.703125 116.46875 218.804688 C 116.464844 219.035156 115.734375 220.242188 115.480469 220.457031 C 115.320312 220.59375 114.613281 221.929688 114.609375 222.113281 C 114.609375 222.144531 114.46875 222.476562 114.308594 222.832031 C 113.78125 223.949219 113.328125 225.046875 112.964844 226.109375 C 112.765625 226.667969 112.566406 227.238281 112.507812 227.363281 C 111.785156 229.03125 111.285156 229.804688 110.433594 230.554688 C 110.144531 230.804688 109.800781 231.109375 109.648438 231.246094 C 109.421875 231.453125 108.917969 231.566406 108.292969 231.566406 C 108.058594 231.566406 107.804688 231.550781 107.539062 231.515625 C 106.578125 231.394531 105.472656 230.675781 104.472656 229.523438 C 103.65625 228.578125 103.308594 227.945312 103.164062 227.15625 C 103.121094 226.914062 103.019531 226.613281 102.941406 226.488281 C 102.839844 226.351562 102.785156 225.9375 102.789062 225.351562 C 102.792969 224.621094 102.75 224.390625 102.578125 224.207031 C 102.148438 223.710938 101.984375 222.519531 102.253906 221.753906 C 102.347656 221.480469 102.339844 221.285156 102.191406 220.847656 C 101.96875 220.183594 102.042969 219.621094 102.4375 218.824219 C 102.613281 218.457031 102.683594 218.195312 102.625 218.078125 C 102.402344 217.644531 102.382812 216.945312 102.570312 216.511719 C 102.6875 216.257812 102.816406 215.640625 102.867188 215.113281 C 102.929688 214.589844 103.035156 214.085938 103.117188 213.984375 C 103.21875 213.871094 103.292969 213.378906 103.320312 212.644531 C 103.347656 212.015625 103.421875 211.375 103.492188 211.226562 C 103.597656 211.03125 103.597656 210.871094 103.496094 210.585938 C 103.328125 210.101562 103.34375 208.441406 103.515625 208.054688 C 103.621094 207.824219 103.625 207.597656 103.511719 207.035156 C 103.402344 206.4375 103.40625 206.105469 103.5625 205.007812 C 103.878906 202.890625 103.949219 202.605469 104.390625 201.679688 C 105.113281 200.199219 105.503906 199.972656 107.910156 199.667969 C 109.058594 199.519531 110.136719 199.21875 111.011719 198.800781 C 111.609375 198.519531 111.769531 198.496094 113.820312 198.433594 C 117.542969 198.335938 118.148438 198.191406 119.097656 197.214844 C 119.929688 196.347656 120.410156 195.941406 120.847656 195.726562 C 121.019531 195.636719 121.503906 195.191406 121.910156 194.75 C 122.3125 194.304688 122.707031 193.941406 122.785156 193.941406 L 122.789062 193.941406 C 122.855469 193.941406 123.0625 193.796875 123.246094 193.601562 C 123.421875 193.421875 123.742188 193.21875 123.949219 193.148438 C 124.214844 193.0625 124.46875 192.8125 124.863281 192.242188 C 125.488281 191.308594 125.878906 190.910156 126.917969 190.136719 C 127.332031 189.820312 127.675781 189.515625 127.675781 189.457031 C 127.691406 189.273438 128.765625 187.917969 129.273438 187.453125 C 129.515625 187.226562 130.105469 186.636719 130.578125 186.144531 C 131.050781 185.65625 131.59375 185.136719 131.789062 184.976562 C 132.503906 184.386719 134.179688 182.613281 134.546875 182.066406 C 134.769531 181.746094 135.242188 181.210938 135.613281 180.859375 C 135.992188 180.507812 136.488281 179.949219 136.730469 179.597656 C 137.371094 178.695312 138.628906 177.480469 139.238281 177.175781 C 139.523438 177.042969 140.144531 176.578125 140.605469 176.167969 C 141.078125 175.746094 141.804688 175.25 142.21875 175.046875 C 142.632812 174.84375 143.023438 174.628906 143.09375 174.550781 C 143.152344 174.46875 143.691406 174.210938 144.265625 173.960938 C 144.851562 173.726562 145.472656 173.421875 145.644531 173.308594 C 145.828125 173.195312 146.300781 172.9375 146.714844 172.734375 C 147.566406 172.316406 148.058594 172.035156 148.738281 171.570312 C 149.003906 171.386719 149.464844 171.195312 149.761719 171.128906 C 150.070312 171.0625 150.496094 170.871094 150.726562 170.691406 C 151.269531 170.28125 151.511719 170.160156 152.015625 170.070312 C 152.554688 169.984375 153.394531 169.441406 153.742188 168.972656 C 154.03125 168.574219 154.199219 167.71875 154.445312 165.496094 C 154.507812 164.925781 154.613281 164.285156 154.671875 164.066406 C 154.730469 163.851562 154.816406 163.4375 154.863281 163.152344 C 154.898438 162.867188 155.007812 162.410156 155.101562 162.125 C 155.183594 161.839844 155.292969 160.886719 155.34375 160.007812 C 155.507812 156.859375 155.679688 155.039062 155.84375 154.640625 C 155.9375 154.421875 156.023438 153.964844 156.023438 153.632812 C 156.027344 153.300781 156.089844 152.820312 156.160156 152.570312 C 156.21875 152.316406 156.347656 151.699219 156.433594 151.195312 C 156.527344 150.691406 156.683594 149.914062 156.800781 149.480469 C 156.90625 149.035156 157.0625 148.394531 157.144531 148.050781 C 157.25 147.617188 157.292969 146.746094 157.28125 145.257812 C 157.269531 143.539062 157.296875 143.027344 157.4375 142.773438 C 157.667969 142.316406 157.730469 136.089844 157.488281 135.996094 C 157.375 135.949219 157.320312 135.558594 157.269531 134.574219 C 157.152344 132.292969 157.128906 132.03125 156.953125 129.679688 C 156.796875 127.46875 156.804688 126.851562 157.054688 125.203125 C 157.226562 124.09375 157.746094 122.058594 157.941406 121.75 C 158.035156 121.613281 158.105469 121.351562 158.105469 121.167969 C 158.109375 120.722656 158.730469 119.089844 159.253906 118.1875 C 159.507812 117.71875 160.121094 116.980469 160.859375 116.242188 C 161.933594 115.148438 162.117188 115.015625 162.875 114.722656 L 163.714844 114.40625 L 164.457031 113.164062 C 165.210938 111.898438 165.476562 111.617188 166.570312 110.902344 C 166.902344 110.6875 167.550781 110.144531 168.011719 109.699219 C 168.472656 109.257812 169.058594 108.757812 169.335938 108.574219 C 169.613281 108.40625 169.957031 108.15625 170.121094 108.042969 C 170.28125 107.929688 170.601562 107.738281 170.832031 107.636719 C 171.394531 107.367188 172.191406 106.71875 172.191406 106.523438 C 172.191406 106.433594 172.238281 106.273438 172.308594 106.160156 C 172.578125 105.691406 173.472656 103.707031 173.476562 103.578125 C 173.476562 103.511719 173.558594 103.328125 173.660156 103.191406 C 173.753906 103.054688 174 102.496094 174.1875 101.949219 C 174.632812 100.703125 175.132812 99.652344 175.453125 99.324219 C 175.882812 98.867188 176.5625 96.753906 176.6875 95.460938 C 176.726562 95.015625 176.832031 94.351562 176.925781 93.976562 C 177.023438 93.597656 177.128906 93.105469 177.164062 92.886719 C 177.210938 92.671875 177.34375 92.214844 177.46875 91.882812 C 177.585938 91.550781 177.695312 91.140625 177.695312 90.96875 C 177.695312 90.796875 177.769531 90.429688 177.863281 90.144531 C 178.226562 89.003906 178.390625 88.339844 178.464844 87.746094 C 178.5 87.402344 178.609375 86.957031 178.699219 86.773438 C 179.050781 86.03125 179.261719 85.253906 179.3125 84.488281 C 179.351562 84.039062 179.425781 83.617188 179.492188 83.539062 C 179.585938 83.433594 179.527344 83.402344 179.253906 83.398438 C 179.058594 83.398438 178.898438 83.351562 178.898438 83.304688 C 178.898438 83.246094 178.820312 83.109375 178.730469 82.980469 C 178.683594 82.921875 178.652344 82.886719 178.628906 82.886719 C 178.578125 82.886719 178.574219 83.078125 178.585938 83.609375 C 178.605469 84.335938 178.542969 84.636719 178.261719 84.636719 C 178.128906 84.636719 177.941406 84.566406 177.6875 84.441406 C 177.09375 84.148438 176.722656 83.609375 176.726562 83.058594 C 176.726562 82.835938 176.71875 82.746094 176.652344 82.746094 C 176.621094 82.746094 176.574219 82.769531 176.507812 82.804688 C 176.371094 82.875 176.226562 82.910156 176.089844 82.910156 C 175.894531 82.910156 175.722656 82.839844 175.617188 82.707031 C 175.230469 82.222656 174.996094 81.535156 175.058594 81.109375 C 175.203125 80.183594 175.296875 79.863281 175.492188 79.648438 C 175.605469 79.523438 175.734375 79.167969 175.785156 78.847656 C 175.855469 78.320312 175.960938 78.058594 176.566406 76.78125 C 176.683594 76.519531 177.089844 76.050781 177.46875 75.722656 C 177.847656 75.394531 178.160156 75.0625 178.160156 74.972656 C 178.164062 74.890625 178.289062 74.746094 178.449219 74.640625 C 178.832031 74.394531 178.820312 74.246094 178.398438 74.105469 C 178.136719 74 178.054688 73.90625 178.058594 73.675781 C 178.058594 73.503906 178.140625 73.265625 178.234375 73.152344 C 178.324219 73.027344 178.40625 72.753906 178.410156 72.546875 C 178.410156 72.339844 178.457031 72.167969 178.515625 72.167969 C 178.574219 72.167969 178.78125 71.90625 178.988281 71.601562 C 179.210938 71.269531 179.441406 71.03125 179.566406 71.03125 C 179.695312 71.03125 179.832031 70.871094 179.949219 70.597656 C 180.121094 70.175781 180.121094 70.175781 179.835938 70.140625 C 179.6875 70.117188 179.539062 70.035156 179.507812 69.941406 C 179.40625 69.679688 177.769531 69.335938 176.085938 69.230469 C 175.390625 69.191406 174.542969 69.101562 174.199219 69.042969 C 173.855469 68.972656 172.976562 68.875 172.253906 68.800781 C 171.53125 68.738281 170.398438 68.566406 169.738281 68.4375 C 167.941406 68.078125 166.558594 67.828125 165.835938 67.71875 C 165.492188 67.671875 165.105469 67.574219 164.980469 67.519531 C 164.867188 67.449219 164.464844 67.363281 164.097656 67.316406 C 163.746094 67.28125 163.230469 67.148438 162.96875 67.042969 C 162.589844 66.890625 162.0625 66.84375 160.253906 66.828125 L 158.011719 66.800781 L 156.574219 67.292969 C 155 67.820312 154.566406 68.011719 154.21875 68.316406 C 154.09375 68.429688 153.621094 68.65625 153.183594 68.8125 C 152.738281 68.980469 152.207031 69.195312 152 69.285156 C 151.796875 69.363281 151.566406 69.441406 151.484375 69.441406 C 151.40625 69.453125 151.140625 69.542969 150.886719 69.664062 C 150.632812 69.789062 150.371094 69.878906 150.300781 69.890625 C 150.230469 69.890625 150.015625 69.96875 149.820312 70.070312 C 149.199219 70.363281 145.988281 71.226562 145.484375 71.226562 C 145.484375 71.226562 145.480469 71.226562 145.480469 71.226562 C 145.351562 71.226562 144.859375 71.328125 144.390625 71.449219 C 143.925781 71.570312 143.292969 71.667969 142.980469 71.667969 C 142.976562 71.667969 142.972656 71.667969 142.96875 71.667969 C 142.960938 71.667969 142.953125 71.667969 142.945312 71.667969 C 142.632812 71.667969 142.335938 71.707031 142.269531 71.773438 C 142.121094 71.921875 140.664062 72.300781 139.46875 72.5 C 138.929688 72.585938 138.207031 72.730469 137.863281 72.816406 C 137.519531 72.90625 136.921875 73.027344 136.542969 73.082031 C 136.167969 73.148438 135.648438 73.246094 135.398438 73.3125 C 135.148438 73.378906 134.769531 73.433594 134.539062 73.433594 C 134.535156 73.433594 134.53125 73.433594 134.527344 73.433594 C 134.523438 73.433594 134.523438 73.433594 134.519531 73.433594 C 134.152344 73.433594 133.511719 73.691406 132.792969 74.152344 C 132.640625 74.242188 132.160156 74.445312 131.722656 74.613281 C 131.273438 74.78125 130.710938 75.007812 130.460938 75.121094 C 130.207031 75.234375 129.941406 75.34375 129.882812 75.355469 C 129.253906 75.582031 127.917969 76.476562 127.546875 76.90625 C 127.027344 77.542969 126.648438 77.851562 125.957031 78.167969 C 125.832031 78.222656 125.234375 78.492188 124.636719 78.773438 C 124.039062 79.046875 123.40625 79.328125 123.234375 79.394531 C 123.035156 79.476562 122.742188 79.515625 122.472656 79.515625 C 122.234375 79.515625 122.011719 79.484375 121.90625 79.417969 C 121.871094 79.394531 121.824219 79.386719 121.769531 79.386719 C 121.675781 79.386719 121.5625 79.414062 121.445312 79.472656 C 121.285156 79.550781 120.5625 79.660156 119.851562 79.722656 C 119.027344 79.785156 118.453125 79.882812 118.28125 79.996094 C 118.113281 80.109375 117.769531 80.171875 117.410156 80.171875 C 117.402344 80.171875 117.394531 80.171875 117.386719 80.171875 C 116.734375 80.167969 116.496094 80.019531 116.351562 79.5 C 116.292969 79.335938 116.21875 79.261719 116.066406 79.261719 C 115.945312 79.261719 115.769531 79.3125 115.515625 79.414062 C 115.300781 79.503906 114.8125 79.578125 114.414062 79.578125 C 114.40625 79.578125 114.398438 79.578125 114.390625 79.578125 C 113.761719 79.574219 113.625 79.527344 113.167969 79.167969 C 112.371094 78.554688 112.128906 77.464844 112.660156 76.894531 C 112.914062 76.636719 113.953125 76.140625 114.265625 76.140625 C 114.265625 76.140625 114.265625 76.140625 114.269531 76.140625 C 114.351562 76.140625 114.613281 76.085938 114.84375 76.019531 C 115.3125 75.898438 115.40625 75.667969 115.109375 75.277344 C 114.851562 74.917969 114.894531 73.832031 115.195312 73.46875 C 115.390625 73.21875 115.425781 73.070312 115.371094 72.703125 C 115.273438 72.082031 115.484375 71.410156 115.839844 71.125 L 116.128906 70.898438 L 115.847656 70.460938 C 115.550781 70.035156 115.457031 69.222656 115.628906 68.765625 C 115.84375 68.230469 117.660156 67.824219 119.316406 67.824219 C 119.820312 67.824219 120.308594 67.859375 120.734375 67.945312 C 121.078125 68.015625 122.175781 68.171875 123.183594 68.308594 L 125.011719 68.527344 L 125.816406 68.210938 C 126.253906 68.042969 126.804688 67.867188 127.023438 67.820312 C 127.539062 67.722656 128.515625 67.410156 129.320312 67.09375 C 130.675781 66.566406 133.210938 65.726562 134.117188 65.515625 C 134.644531 65.40625 135.449219 65.125 135.898438 64.910156 C 136.976562 64.40625 138.539062 63.820312 139.882812 63.40625 C 140.480469 63.230469 141.332031 62.949219 141.765625 62.792969 C 142.199219 62.636719 142.757812 62.503906 143 62.503906 C 143.003906 62.503906 143.003906 62.503906 143.003906 62.503906 C 143.007812 62.503906 143.011719 62.503906 143.015625 62.503906 C 143.589844 62.503906 144.429688 62.136719 144.511719 61.839844 C 144.570312 61.589844 145.445312 61.113281 146.203125 60.9375 C 146.488281 60.859375 146.972656 60.679688 147.292969 60.53125 C 147.832031 60.273438 148.429688 60.09375 149.875 59.738281 C 150.703125 59.539062 151.378906 59.351562 152.976562 58.871094 C 153.699219 58.648438 154.742188 58.367188 155.304688 58.246094 C 155.855469 58.125 156.648438 57.867188 157.085938 57.6875 C 157.839844 57.347656 159.5625 57.054688 160.585938 57.054688 C 160.746094 57.054688 160.886719 57.0625 161.003906 57.078125 C 161.992188 57.214844 165.394531 57.347656 167.242188 57.347656 C 167.8125 57.347656 168.234375 57.332031 168.390625 57.304688 C 169.957031 57.046875 170.886719 56.984375 174.53125 56.984375 C 175.027344 56.984375 175.574219 56.984375 176.179688 56.988281 C 177.417969 56.996094 178.394531 57.003906 179.167969 57.003906 C 182.328125 57.003906 182.101562 56.855469 182.386719 55.855469 C 182.5625 55.226562 182.703125 54.976562 183.164062 54.511719 C 183.476562 54.203125 183.8125 53.816406 183.914062 53.667969 C 184.019531 53.519531 184.238281 53.339844 184.398438 53.269531 C 184.949219 53.035156 185.515625 52.59375 185.710938 52.25 C 185.851562 52.023438 185.984375 51.382812 186.09375 50.464844 C 186.410156 47.742188 186.71875 46.65625 187.460938 45.519531 C 187.679688 45.1875 187.96875 44.617188 188.121094 44.242188 C 188.472656 43.359375 189.121094 42.3125 189.457031 42.050781 C 189.605469 41.9375 189.847656 41.640625 190.011719 41.390625 C 190.300781 40.9375 190.726562 40.6875 192.691406 39.796875 C 193.351562 39.503906 194.328125 39.355469 195.265625 39.355469 C 196.257812 39.355469 197.210938 39.519531 197.695312 39.847656 C 197.9375 40.007812 198.210938 40.136719 198.3125 40.136719 C 198.414062 40.140625 198.757812 40.289062 199.066406 40.488281 C 199.363281 40.671875 199.636719 40.835938 199.671875 40.835938 C 199.796875 40.835938 200.15625 40.382812 200.410156 39.878906 C 200.792969 39.148438 201.070312 38.910156 201.875 38.621094 C 202.242188 38.484375 202.757812 38.238281 203 38.066406 C 203.242188 37.910156 203.507812 37.773438 203.574219 37.773438 C 203.574219 37.773438 203.574219 37.773438 203.578125 37.773438 C 203.65625 37.773438 204.070312 37.582031 204.507812 37.355469 L 205.3125 36.941406 L 207.316406 36.933594 C 207.476562 36.929688 207.625 36.929688 207.769531 36.929688 Z M 207.769531 36.929688 " fill-opacity="1" fill-rule="nonzero"/></g><g fill="#65eeff" fill-opacity="1"><g transform="translate(69.333474, 322.379838)"><g><path d="M 22.171875 -32.328125 C 22.347656 -32.328125 22.5625 -32.3125 22.8125 -32.28125 C 23.0625 -32.257812 23.300781 -32.179688 23.53125 -32.046875 C 23.769531 -31.910156 23.984375 -31.695312 24.171875 -31.40625 C 24.367188 -31.113281 24.5 -30.71875 24.5625 -30.21875 C 24.59375 -29.894531 24.65625 -29.507812 24.75 -29.0625 C 24.851562 -28.625 24.90625 -28.109375 24.90625 -27.515625 C 24.90625 -27.285156 24.832031 -27.109375 24.6875 -26.984375 C 24.539062 -26.867188 24.363281 -26.8125 24.15625 -26.8125 C 23.78125 -26.8125 23.476562 -26.976562 23.25 -27.3125 C 23.03125 -27.65625 22.691406 -28.023438 22.234375 -28.421875 C 21.785156 -28.816406 21.085938 -29.179688 20.140625 -29.515625 C 19.203125 -29.859375 17.804688 -30.03125 15.953125 -30.03125 L 10.90625 -30.03125 C 9.789062 -30.03125 9.007812 -29.894531 8.5625 -29.625 C 8.125 -29.363281 7.90625 -28.941406 7.90625 -28.359375 L 7.90625 -17.71875 L 16.4375 -17.71875 C 17.46875 -17.71875 18.21875 -17.789062 18.6875 -17.9375 C 19.15625 -18.082031 19.492188 -18.25 19.703125 -18.4375 C 19.910156 -18.632812 20.0625 -18.804688 20.15625 -18.953125 C 20.257812 -19.097656 20.476562 -19.171875 20.8125 -19.171875 C 21.28125 -19.171875 21.539062 -18.945312 21.59375 -18.5 C 21.65625 -18.0625 21.6875 -17.503906 21.6875 -16.828125 C 21.6875 -15.796875 21.640625 -15.070312 21.546875 -14.65625 C 21.460938 -14.25 21.15625 -14.046875 20.625 -14.046875 C 20.332031 -14.046875 20.132812 -14.117188 20.03125 -14.265625 C 19.925781 -14.410156 19.769531 -14.5625 19.5625 -14.71875 C 19.363281 -14.882812 19.054688 -15.039062 18.640625 -15.1875 C 18.222656 -15.34375 17.5625 -15.421875 16.65625 -15.421875 L 7.90625 -15.421875 L 7.90625 -3.09375 C 7.90625 -2.769531 8.046875 -2.554688 8.328125 -2.453125 C 8.609375 -2.347656 8.910156 -2.25 9.234375 -2.15625 C 9.554688 -2.070312 9.859375 -1.957031 10.140625 -1.8125 C 10.421875 -1.664062 10.5625 -1.398438 10.5625 -1.015625 C 10.5625 -0.722656 10.460938 -0.476562 10.265625 -0.28125 C 10.078125 -0.09375 9.6875 0 9.09375 0 L 2.921875 0 C 1.828125 0 1.28125 -0.335938 1.28125 -1.015625 C 1.28125 -1.429688 1.382812 -1.6875 1.59375 -1.78125 C 1.800781 -1.882812 2.050781 -1.984375 2.34375 -2.078125 C 2.601562 -2.160156 2.828125 -2.238281 3.015625 -2.3125 C 3.210938 -2.382812 3.375 -2.503906 3.5 -2.671875 C 3.632812 -2.835938 3.738281 -3.050781 3.8125 -3.3125 C 3.894531 -3.570312 3.9375 -3.941406 3.9375 -4.421875 L 3.9375 -28.796875 C 3.9375 -29.265625 3.796875 -29.585938 3.515625 -29.765625 C 3.234375 -29.941406 2.929688 -30.082031 2.609375 -30.1875 C 2.285156 -30.289062 1.984375 -30.410156 1.703125 -30.546875 C 1.421875 -30.679688 1.28125 -30.953125 1.28125 -31.359375 C 1.28125 -31.628906 1.367188 -31.859375 1.546875 -32.046875 C 1.722656 -32.234375 2.101562 -32.328125 2.6875 -32.328125 Z M 22.171875 -32.328125 "/></g></g></g><g fill="#65eeff" fill-opacity="1"><g transform="translate(97.159613, 322.379838)"><g><path d="M 9.015625 -32.328125 C 9.597656 -32.328125 9.96875 -32.222656 10.125 -32.015625 C 10.289062 -31.816406 10.375 -31.597656 10.375 -31.359375 C 10.375 -30.921875 10.269531 -30.65625 10.0625 -30.5625 C 9.863281 -30.476562 9.613281 -30.375 9.3125 -30.25 C 8.96875 -30.101562 8.695312 -29.992188 8.5 -29.921875 C 8.3125 -29.847656 8.15625 -29.726562 8.03125 -29.5625 C 7.914062 -29.40625 7.84375 -29.179688 7.8125 -28.890625 C 7.789062 -28.597656 7.78125 -28.171875 7.78125 -27.609375 L 7.78125 -3.09375 C 7.78125 -2.820312 7.910156 -2.628906 8.171875 -2.515625 C 8.429688 -2.398438 8.726562 -2.289062 9.0625 -2.1875 C 9.40625 -2.082031 9.707031 -1.945312 9.96875 -1.78125 C 10.238281 -1.625 10.375 -1.367188 10.375 -1.015625 C 10.375 -0.691406 10.28125 -0.441406 10.09375 -0.265625 C 9.90625 -0.0859375 9.53125 0 8.96875 0 L 2.515625 0 C 1.929688 0 1.550781 -0.109375 1.375 -0.328125 C 1.195312 -0.546875 1.109375 -0.773438 1.109375 -1.015625 C 1.109375 -1.429688 1.242188 -1.695312 1.515625 -1.8125 C 1.796875 -1.925781 2.101562 -2.023438 2.4375 -2.109375 C 2.78125 -2.203125 3.09375 -2.351562 3.375 -2.5625 C 3.65625 -2.769531 3.796875 -3.164062 3.796875 -3.75 L 3.796875 -29.28125 C 3.796875 -29.550781 3.65625 -29.742188 3.375 -29.859375 C 3.09375 -29.972656 2.789062 -30.070312 2.46875 -30.15625 C 2.144531 -30.25 1.84375 -30.375 1.5625 -30.53125 C 1.289062 -30.695312 1.15625 -30.972656 1.15625 -31.359375 C 1.15625 -31.679688 1.25 -31.921875 1.4375 -32.078125 C 1.625 -32.242188 1.984375 -32.328125 2.515625 -32.328125 Z M 9.015625 -32.328125 "/></g></g></g><g fill="#65eeff" fill-opacity="1"><g transform="translate(111.735397, 322.379838)"><g><path d="M 26.15625 -32.328125 C 26.238281 -32.328125 26.359375 -32.320312 26.515625 -32.3125 C 26.679688 -32.300781 26.835938 -32.25 26.984375 -32.15625 C 27.128906 -32.070312 27.253906 -31.914062 27.359375 -31.6875 C 27.460938 -31.46875 27.53125 -31.15625 27.5625 -30.75 C 27.59375 -30.394531 27.671875 -29.953125 27.796875 -29.421875 C 27.929688 -28.890625 28 -28.269531 28 -27.5625 C 28 -27.207031 27.910156 -26.945312 27.734375 -26.78125 C 27.554688 -26.625 27.351562 -26.546875 27.125 -26.546875 C 26.738281 -26.546875 26.375 -26.726562 26.03125 -27.09375 C 25.695312 -27.46875 25.226562 -27.875 24.625 -28.3125 C 24.019531 -28.757812 23.207031 -29.164062 22.1875 -29.53125 C 21.175781 -29.894531 19.816406 -30.078125 18.109375 -30.078125 C 17.253906 -30.078125 16.707031 -29.929688 16.46875 -29.640625 C 16.238281 -29.347656 16.125 -28.703125 16.125 -27.703125 L 16.125 -4.328125 C 16.125 -3.566406 16.175781 -3.070312 16.28125 -2.84375 C 16.382812 -2.625 16.597656 -2.457031 16.921875 -2.34375 C 17.296875 -2.195312 17.695312 -2.039062 18.125 -1.875 C 18.550781 -1.71875 18.765625 -1.429688 18.765625 -1.015625 C 18.765625 -0.691406 18.671875 -0.441406 18.484375 -0.265625 C 18.296875 -0.0859375 17.921875 0 17.359375 0 L 10.90625 0 C 9.9375 0 9.453125 -0.335938 9.453125 -1.015625 C 9.453125 -1.335938 9.582031 -1.578125 9.84375 -1.734375 C 10.113281 -1.898438 10.425781 -2.03125 10.78125 -2.125 C 11.007812 -2.175781 11.210938 -2.253906 11.390625 -2.359375 C 11.566406 -2.460938 11.707031 -2.601562 11.8125 -2.78125 C 11.914062 -2.957031 11.992188 -3.195312 12.046875 -3.5 C 12.109375 -3.8125 12.140625 -4.21875 12.140625 -4.71875 L 12.140625 -27.703125 C 12.140625 -28.703125 12.019531 -29.347656 11.78125 -29.640625 C 11.550781 -29.929688 11.007812 -30.078125 10.15625 -30.078125 C 8.414062 -30.078125 7.046875 -29.894531 6.046875 -29.53125 C 5.046875 -29.164062 4.242188 -28.757812 3.640625 -28.3125 C 3.035156 -27.875 2.5625 -27.46875 2.21875 -27.09375 C 1.882812 -26.726562 1.53125 -26.546875 1.15625 -26.546875 C 0.914062 -26.546875 0.707031 -26.617188 0.53125 -26.765625 C 0.351562 -26.910156 0.265625 -27.175781 0.265625 -27.5625 C 0.265625 -28.03125 0.320312 -28.582031 0.4375 -29.21875 C 0.5625 -29.851562 0.648438 -30.363281 0.703125 -30.75 C 0.765625 -31.300781 0.890625 -31.703125 1.078125 -31.953125 C 1.273438 -32.203125 1.625 -32.328125 2.125 -32.328125 Z M 26.15625 -32.328125 "/></g></g></g><g fill="#65eeff" fill-opacity="1"><g transform="translate(143.09495, 322.379838)"><g><path d="M 17.40625 -30.65625 C 15.582031 -30.65625 13.96875 -30.234375 12.5625 -29.390625 C 11.164062 -28.554688 9.992188 -27.453125 9.046875 -26.078125 C 8.109375 -24.710938 7.390625 -23.148438 6.890625 -21.390625 C 6.390625 -19.640625 6.140625 -17.851562 6.140625 -16.03125 C 6.140625 -14 6.425781 -12.09375 7 -10.3125 C 7.570312 -8.53125 8.359375 -6.984375 9.359375 -5.671875 C 10.359375 -4.359375 11.519531 -3.316406 12.84375 -2.546875 C 14.175781 -1.785156 15.59375 -1.40625 17.09375 -1.40625 L 18.109375 -1.453125 C 17.640625 -2.609375 17.335938 -3.582031 17.203125 -4.375 C 17.066406 -5.164062 17 -5.8125 17 -6.3125 C 17 -6.632812 17.050781 -7.003906 17.15625 -7.421875 C 17.257812 -7.835938 17.546875 -8.046875 18.015625 -8.046875 C 18.398438 -8.046875 18.648438 -7.878906 18.765625 -7.546875 C 18.890625 -7.222656 18.988281 -6.773438 19.0625 -6.203125 C 19.132812 -5.628906 19.257812 -4.96875 19.4375 -4.21875 C 19.613281 -3.46875 19.953125 -2.664062 20.453125 -1.8125 C 21.953125 -2.3125 23.238281 -3.050781 24.3125 -4.03125 C 25.382812 -5.019531 26.265625 -6.15625 26.953125 -7.4375 C 27.648438 -8.71875 28.160156 -10.078125 28.484375 -11.515625 C 28.816406 -12.960938 28.984375 -14.394531 28.984375 -15.8125 C 28.984375 -17.9375 28.71875 -19.898438 28.1875 -21.703125 C 27.65625 -23.515625 26.890625 -25.082031 25.890625 -26.40625 C 24.890625 -27.738281 23.671875 -28.78125 22.234375 -29.53125 C 20.804688 -30.28125 19.195312 -30.65625 17.40625 -30.65625 Z M 1.640625 -15.984375 C 1.640625 -18.316406 2.003906 -20.507812 2.734375 -22.5625 C 3.472656 -24.625 4.523438 -26.425781 5.890625 -27.96875 C 7.265625 -29.519531 8.921875 -30.742188 10.859375 -31.640625 C 12.804688 -32.546875 15.003906 -33 17.453125 -33 C 19.597656 -33 21.640625 -32.597656 23.578125 -31.796875 C 25.523438 -31.003906 27.234375 -29.867188 28.703125 -28.390625 C 30.179688 -26.921875 31.347656 -25.148438 32.203125 -23.078125 C 33.054688 -21.003906 33.484375 -18.671875 33.484375 -16.078125 C 33.484375 -14.304688 33.1875 -12.535156 32.59375 -10.765625 C 32.007812 -9.003906 31.191406 -7.378906 30.140625 -5.890625 C 29.097656 -4.410156 27.867188 -3.140625 26.453125 -2.078125 C 25.046875 -1.015625 23.515625 -0.320312 21.859375 0 C 22.835938 0.851562 23.914062 1.566406 25.09375 2.140625 C 26.269531 2.710938 27.535156 3 28.890625 3 C 29.390625 3 29.894531 2.953125 30.40625 2.859375 C 30.925781 2.773438 31.40625 2.734375 31.84375 2.734375 C 32.257812 2.734375 32.59375 2.863281 32.84375 3.125 C 33.09375 3.394531 33.21875 3.765625 33.21875 4.234375 C 33.21875 4.617188 33.097656 4.9375 32.859375 5.1875 C 32.628906 5.4375 32.347656 5.632812 32.015625 5.78125 C 31.691406 5.925781 31.335938 6.03125 30.953125 6.09375 C 30.578125 6.15625 30.242188 6.1875 29.953125 6.1875 C 27.972656 6.1875 26.054688 5.65625 24.203125 4.59375 C 22.347656 3.53125 20.742188 2.175781 19.390625 0.53125 C 19.148438 0.53125 18.832031 0.550781 18.4375 0.59375 C 18.039062 0.632812 17.59375 0.65625 17.09375 0.65625 C 15.144531 0.65625 13.25 0.304688 11.40625 -0.390625 C 9.570312 -1.097656 7.925781 -2.148438 6.46875 -3.546875 C 5.007812 -4.953125 3.835938 -6.691406 2.953125 -8.765625 C 2.078125 -10.835938 1.640625 -13.242188 1.640625 -15.984375 Z M 1.640625 -15.984375 "/></g></g></g><g fill="#65eeff" fill-opacity="1"><g transform="translate(181.521349, 322.379838)"><g><path d="M 8.828125 -32.328125 C 9.421875 -32.328125 9.804688 -32.222656 9.984375 -32.015625 C 10.160156 -31.816406 10.25 -31.597656 10.25 -31.359375 C 10.25 -30.890625 9.878906 -30.535156 9.140625 -30.296875 C 8.992188 -30.242188 8.847656 -30.191406 8.703125 -30.140625 C 8.554688 -30.097656 8.410156 -30.007812 8.265625 -29.875 C 8.117188 -29.75 7.984375 -29.566406 7.859375 -29.328125 C 7.742188 -29.097656 7.671875 -28.773438 7.640625 -28.359375 C 7.578125 -27.796875 7.515625 -26.953125 7.453125 -25.828125 C 7.398438 -24.710938 7.34375 -23.457031 7.28125 -22.0625 C 7.226562 -20.664062 7.175781 -19.207031 7.125 -17.6875 C 7.082031 -16.175781 7.0625 -14.753906 7.0625 -13.421875 C 7.0625 -11.335938 7.3125 -9.554688 7.8125 -8.078125 C 8.3125 -6.609375 9.003906 -5.394531 9.890625 -4.4375 C 10.773438 -3.476562 11.804688 -2.773438 12.984375 -2.328125 C 14.160156 -1.890625 15.441406 -1.671875 16.828125 -1.671875 C 18.628906 -1.671875 20.207031 -1.882812 21.5625 -2.3125 C 22.914062 -2.738281 24.046875 -3.414062 24.953125 -4.34375 C 25.867188 -5.28125 26.554688 -6.5 27.015625 -8 C 27.472656 -9.5 27.703125 -11.304688 27.703125 -13.421875 C 27.703125 -17.160156 27.625 -20.304688 27.46875 -22.859375 C 27.320312 -25.410156 27.207031 -27.050781 27.125 -27.78125 C 27.0625 -28.28125 27 -28.675781 26.9375 -28.96875 C 26.882812 -29.269531 26.796875 -29.507812 26.671875 -29.6875 C 26.554688 -29.863281 26.410156 -29.988281 26.234375 -30.0625 C 26.054688 -30.132812 25.835938 -30.210938 25.578125 -30.296875 C 25.160156 -30.421875 24.78125 -30.546875 24.4375 -30.671875 C 24.101562 -30.804688 23.9375 -31.050781 23.9375 -31.40625 C 23.9375 -31.789062 24.078125 -32.039062 24.359375 -32.15625 C 24.640625 -32.269531 24.925781 -32.328125 25.21875 -32.328125 L 31.09375 -32.328125 C 31.863281 -32.328125 32.25 -31.988281 32.25 -31.3125 C 32.25 -30.9375 32.144531 -30.695312 31.9375 -30.59375 C 31.726562 -30.488281 31.460938 -30.375 31.140625 -30.25 C 30.960938 -30.195312 30.789062 -30.140625 30.625 -30.078125 C 30.46875 -30.023438 30.316406 -29.921875 30.171875 -29.765625 C 30.023438 -29.617188 29.90625 -29.40625 29.8125 -29.125 C 29.726562 -28.851562 29.6875 -28.460938 29.6875 -27.953125 C 29.6875 -27.453125 29.710938 -26.671875 29.765625 -25.609375 C 29.828125 -24.554688 29.894531 -23.351562 29.96875 -22 C 30.039062 -20.644531 30.101562 -19.210938 30.15625 -17.703125 C 30.21875 -16.203125 30.25 -14.75 30.25 -13.34375 C 30.25 -8.832031 29.1875 -5.367188 27.0625 -2.953125 C 24.945312 -0.546875 21.519531 0.65625 16.78125 0.65625 C 14.34375 0.65625 12.257812 0.347656 10.53125 -0.265625 C 8.8125 -0.878906 7.398438 -1.773438 6.296875 -2.953125 C 5.191406 -4.128906 4.378906 -5.585938 3.859375 -7.328125 C 3.347656 -9.066406 3.09375 -11.070312 3.09375 -13.34375 C 3.09375 -14.726562 3.117188 -16.242188 3.171875 -17.890625 C 3.234375 -19.535156 3.300781 -21.101562 3.375 -22.59375 C 3.445312 -24.082031 3.515625 -25.390625 3.578125 -26.515625 C 3.640625 -27.648438 3.671875 -28.394531 3.671875 -28.75 C 3.671875 -29.28125 3.546875 -29.632812 3.296875 -29.8125 C 3.046875 -29.988281 2.769531 -30.128906 2.46875 -30.234375 C 2.175781 -30.335938 1.90625 -30.445312 1.65625 -30.5625 C 1.40625 -30.6875 1.28125 -30.953125 1.28125 -31.359375 C 1.28125 -31.628906 1.367188 -31.859375 1.546875 -32.046875 C 1.722656 -32.234375 2.101562 -32.328125 2.6875 -32.328125 Z M 8.828125 -32.328125 "/></g></g></g><g fill="#65eeff" fill-opacity="1"><g transform="translate(218.181027, 322.379838)"><g><path d="M 22.171875 -32.328125 C 22.765625 -32.328125 23.207031 -32.128906 23.5 -31.734375 C 23.789062 -31.335938 23.96875 -30.832031 24.03125 -30.21875 C 24.09375 -29.800781 24.164062 -29.363281 24.25 -28.90625 C 24.34375 -28.445312 24.390625 -27.984375 24.390625 -27.515625 C 24.390625 -27.285156 24.3125 -27.109375 24.15625 -26.984375 C 24.007812 -26.867188 23.832031 -26.8125 23.625 -26.8125 C 23.25 -26.8125 22.945312 -26.976562 22.71875 -27.3125 C 22.5 -27.65625 22.160156 -28.023438 21.703125 -28.421875 C 21.253906 -28.816406 20.554688 -29.179688 19.609375 -29.515625 C 18.671875 -29.859375 17.273438 -30.03125 15.421875 -30.03125 L 10.953125 -30.03125 C 9.691406 -30.03125 8.859375 -29.769531 8.453125 -29.25 C 8.054688 -28.738281 7.859375 -28.054688 7.859375 -27.203125 L 7.859375 -18.546875 L 16.03125 -18.546875 C 17 -18.546875 17.703125 -18.617188 18.140625 -18.765625 C 18.585938 -18.921875 18.921875 -19.09375 19.140625 -19.28125 C 19.367188 -19.46875 19.539062 -19.632812 19.65625 -19.78125 C 19.769531 -19.9375 19.976562 -20.015625 20.28125 -20.015625 C 20.75 -20.015625 21.007812 -19.789062 21.0625 -19.34375 C 21.125 -18.90625 21.15625 -18.347656 21.15625 -17.671875 C 21.15625 -16.640625 21.109375 -15.914062 21.015625 -15.5 C 20.929688 -15.09375 20.625 -14.890625 20.09375 -14.890625 C 19.832031 -14.890625 19.632812 -14.960938 19.5 -15.109375 C 19.363281 -15.253906 19.203125 -15.40625 19.015625 -15.5625 C 18.828125 -15.726562 18.546875 -15.882812 18.171875 -16.03125 C 17.804688 -16.175781 17.226562 -16.25 16.4375 -16.25 L 7.859375 -16.25 L 7.859375 -5.875 C 7.859375 -4.550781 8.019531 -3.625 8.34375 -3.09375 C 8.664062 -2.5625 9.390625 -2.296875 10.515625 -2.296875 L 14.359375 -2.296875 C 16.097656 -2.296875 17.523438 -2.382812 18.640625 -2.5625 C 19.753906 -2.738281 20.664062 -2.957031 21.375 -3.21875 C 22.082031 -3.488281 22.628906 -3.769531 23.015625 -4.0625 C 23.398438 -4.351562 23.707031 -4.628906 23.9375 -4.890625 C 24.175781 -5.160156 24.390625 -5.382812 24.578125 -5.5625 C 24.773438 -5.738281 25.035156 -5.828125 25.359375 -5.828125 C 25.828125 -5.828125 26.0625 -5.578125 26.0625 -5.078125 C 26.0625 -4.816406 26.03125 -4.507812 25.96875 -4.15625 C 25.914062 -3.800781 25.859375 -3.445312 25.796875 -3.09375 C 25.734375 -2.738281 25.671875 -2.40625 25.609375 -2.09375 C 25.554688 -1.789062 25.515625 -1.550781 25.484375 -1.375 C 25.429688 -0.957031 25.320312 -0.648438 25.15625 -0.453125 C 24.988281 -0.265625 24.8125 -0.140625 24.625 -0.078125 C 24.4375 -0.0234375 24.242188 0 24.046875 0 C 23.859375 0 23.707031 0 23.59375 0 L 2.921875 0 C 1.828125 0 1.28125 -0.335938 1.28125 -1.015625 C 1.28125 -1.453125 1.410156 -1.722656 1.671875 -1.828125 C 1.941406 -1.929688 2.242188 -2.023438 2.578125 -2.109375 C 2.921875 -2.203125 3.222656 -2.390625 3.484375 -2.671875 C 3.753906 -2.953125 3.890625 -3.519531 3.890625 -4.375 L 3.890625 -28.1875 C 3.890625 -28.945312 3.753906 -29.453125 3.484375 -29.703125 C 3.222656 -29.953125 2.921875 -30.128906 2.578125 -30.234375 C 2.242188 -30.335938 1.941406 -30.441406 1.671875 -30.546875 C 1.410156 -30.648438 1.28125 -30.921875 1.28125 -31.359375 C 1.28125 -31.597656 1.367188 -31.816406 1.546875 -32.015625 C 1.722656 -32.222656 2.101562 -32.328125 2.6875 -32.328125 Z M 22.171875 -32.328125 "/></g></g></g><g fill="#65eeff" fill-opacity="1"><g transform="translate(247.773858, 322.379838)"><g><path d="M 2.203125 -23.671875 C 2.203125 -24.878906 2.4375 -26.039062 2.90625 -27.15625 C 3.382812 -28.28125 4.09375 -29.273438 5.03125 -30.140625 C 5.976562 -31.015625 7.148438 -31.707031 8.546875 -32.21875 C 9.941406 -32.738281 11.566406 -33 13.421875 -33 C 13.984375 -33 14.628906 -32.953125 15.359375 -32.859375 C 16.097656 -32.773438 16.835938 -32.644531 17.578125 -32.46875 C 18.316406 -32.289062 19.03125 -32.0625 19.71875 -31.78125 C 20.414062 -31.5 21.03125 -31.179688 21.5625 -30.828125 C 21.738281 -30.679688 21.925781 -30.519531 22.125 -30.34375 C 22.332031 -30.164062 22.46875 -29.960938 22.53125 -29.734375 C 22.582031 -29.347656 22.613281 -28.890625 22.625 -28.359375 C 22.644531 -27.828125 22.65625 -27.3125 22.65625 -26.8125 C 22.65625 -26.570312 22.617188 -26.3125 22.546875 -26.03125 C 22.472656 -25.757812 22.273438 -25.625 21.953125 -25.625 C 21.628906 -25.625 21.269531 -25.882812 20.875 -26.40625 C 20.476562 -26.9375 19.941406 -27.523438 19.265625 -28.171875 C 18.585938 -28.828125 17.703125 -29.421875 16.609375 -29.953125 C 15.515625 -30.484375 14.101562 -30.75 12.375 -30.75 C 11.570312 -30.75 10.785156 -30.625 10.015625 -30.375 C 9.253906 -30.125 8.570312 -29.757812 7.96875 -29.28125 C 7.363281 -28.8125 6.882812 -28.238281 6.53125 -27.5625 C 6.175781 -26.882812 6 -26.132812 6 -25.3125 C 6 -24.070312 6.28125 -23.082031 6.84375 -22.34375 C 7.40625 -21.613281 8.132812 -21.023438 9.03125 -20.578125 C 9.925781 -20.140625 10.957031 -19.785156 12.125 -19.515625 C 13.289062 -19.253906 14.484375 -18.984375 15.703125 -18.703125 C 16.921875 -18.421875 18.113281 -18.085938 19.28125 -17.703125 C 20.445312 -17.328125 21.476562 -16.785156 22.375 -16.078125 C 23.269531 -15.367188 24 -14.453125 24.5625 -13.328125 C 25.125 -12.210938 25.40625 -10.789062 25.40625 -9.0625 C 25.40625 -8.082031 25.160156 -7.023438 24.671875 -5.890625 C 24.179688 -4.765625 23.425781 -3.710938 22.40625 -2.734375 C 21.394531 -1.765625 20.101562 -0.957031 18.53125 -0.3125 C 16.957031 0.332031 15.09375 0.65625 12.9375 0.65625 C 10.582031 0.65625 8.628906 0.328125 7.078125 -0.328125 C 5.535156 -0.992188 4.316406 -1.757812 3.421875 -2.625 C 2.523438 -3.5 1.890625 -4.367188 1.515625 -5.234375 C 1.148438 -6.097656 0.96875 -6.753906 0.96875 -7.203125 C 0.96875 -7.554688 1.0625 -7.878906 1.25 -8.171875 C 1.445312 -8.460938 1.753906 -8.609375 2.171875 -8.609375 C 2.492188 -8.609375 2.765625 -8.5 2.984375 -8.28125 C 3.203125 -8.0625 3.429688 -7.773438 3.671875 -7.421875 C 3.960938 -6.921875 4.347656 -6.335938 4.828125 -5.671875 C 5.316406 -5.015625 5.9375 -4.382812 6.6875 -3.78125 C 7.4375 -3.175781 8.363281 -2.664062 9.46875 -2.25 C 10.570312 -1.84375 11.90625 -1.640625 13.46875 -1.640625 C 14.5 -1.640625 15.519531 -1.773438 16.53125 -2.046875 C 17.550781 -2.328125 18.46875 -2.753906 19.28125 -3.328125 C 20.09375 -3.910156 20.75 -4.632812 21.25 -5.5 C 21.75 -6.363281 22 -7.375 22 -8.53125 C 22 -9.707031 21.710938 -10.65625 21.140625 -11.375 C 20.566406 -12.09375 19.8125 -12.6875 18.875 -13.15625 C 17.945312 -13.632812 16.894531 -14.019531 15.71875 -14.3125 C 14.539062 -14.601562 13.332031 -14.890625 12.09375 -15.171875 C 10.863281 -15.453125 9.648438 -15.773438 8.453125 -16.140625 C 7.265625 -16.515625 6.207031 -17.015625 5.28125 -17.640625 C 4.351562 -18.273438 3.609375 -19.070312 3.046875 -20.03125 C 2.484375 -20.988281 2.203125 -22.203125 2.203125 -23.671875 Z M 2.203125 -23.671875 "/></g></g></g><g fill="#65eeff" fill-opacity="1"><g transform="translate(277.36669, 322.379838)"><g><path d="M 26.15625 -32.328125 C 26.238281 -32.328125 26.359375 -32.320312 26.515625 -32.3125 C 26.679688 -32.300781 26.835938 -32.25 26.984375 -32.15625 C 27.128906 -32.070312 27.253906 -31.914062 27.359375 -31.6875 C 27.460938 -31.46875 27.53125 -31.15625 27.5625 -30.75 C 27.59375 -30.394531 27.671875 -29.953125 27.796875 -29.421875 C 27.929688 -28.890625 28 -28.269531 28 -27.5625 C 28 -27.207031 27.910156 -26.945312 27.734375 -26.78125 C 27.554688 -26.625 27.351562 -26.546875 27.125 -26.546875 C 26.738281 -26.546875 26.375 -26.726562 26.03125 -27.09375 C 25.695312 -27.46875 25.226562 -27.875 24.625 -28.3125 C 24.019531 -28.757812 23.207031 -29.164062 22.1875 -29.53125 C 21.175781 -29.894531 19.816406 -30.078125 18.109375 -30.078125 C 17.253906 -30.078125 16.707031 -29.929688 16.46875 -29.640625 C 16.238281 -29.347656 16.125 -28.703125 16.125 -27.703125 L 16.125 -4.328125 C 16.125 -3.566406 16.175781 -3.070312 16.28125 -2.84375 C 16.382812 -2.625 16.597656 -2.457031 16.921875 -2.34375 C 17.296875 -2.195312 17.695312 -2.039062 18.125 -1.875 C 18.550781 -1.71875 18.765625 -1.429688 18.765625 -1.015625 C 18.765625 -0.691406 18.671875 -0.441406 18.484375 -0.265625 C 18.296875 -0.0859375 17.921875 0 17.359375 0 L 10.90625 0 C 9.9375 0 9.453125 -0.335938 9.453125 -1.015625 C 9.453125 -1.335938 9.582031 -1.578125 9.84375 -1.734375 C 10.113281 -1.898438 10.425781 -2.03125 10.78125 -2.125 C 11.007812 -2.175781 11.210938 -2.253906 11.390625 -2.359375 C 11.566406 -2.460938 11.707031 -2.601562 11.8125 -2.78125 C 11.914062 -2.957031 11.992188 -3.195312 12.046875 -3.5 C 12.109375 -3.8125 12.140625 -4.21875 12.140625 -4.71875 L 12.140625 -27.703125 C 12.140625 -28.703125 12.019531 -29.347656 11.78125 -29.640625 C 11.550781 -29.929688 11.007812 -30.078125 10.15625 -30.078125 C 8.414062 -30.078125 7.046875 -29.894531 6.046875 -29.53125 C 5.046875 -29.164062 4.242188 -28.757812 3.640625 -28.3125 C 3.035156 -27.875 2.5625 -27.46875 2.21875 -27.09375 C 1.882812 -26.726562 1.53125 -26.546875 1.15625 -26.546875 C 0.914062 -26.546875 0.707031 -26.617188 0.53125 -26.765625 C 0.351562 -26.910156 0.265625 -27.175781 0.265625 -27.5625 C 0.265625 -28.03125 0.320312 -28.582031 0.4375 -29.21875 C 0.5625 -29.851562 0.648438 -30.363281 0.703125 -30.75 C 0.765625 -31.300781 0.890625 -31.703125 1.078125 -31.953125 C 1.273438 -32.203125 1.625 -32.328125 2.125 -32.328125 Z M 26.15625 -32.328125 "/></g></g></g></svg>