<?xml version="1.0" encoding="UTF-8" standalone="no"?>
<!-- Created with Inkscape (http://www.inkscape.org/) -->

<svg
   version="1.1"
   id="svg2"
   width="2666.6667"
   height="2666.6667"
   viewBox="0 0 2666.6667 2666.6667"
   sodipodi:docname="vecteezy_linear-calories-icon-design-template-vector-illustration_.eps"
   xmlns:inkscape="http://www.inkscape.org/namespaces/inkscape"
   xmlns:sodipodi="http://sodipodi.sourceforge.net/DTD/sodipodi-0.dtd"
   xmlns="http://www.w3.org/2000/svg"
   xmlns:svg="http://www.w3.org/2000/svg">
  <defs
     id="defs6" />
  <sodipodi:namedview
     id="namedview4"
     pagecolor="#ffffff"
     bordercolor="#000000"
     borderopacity="0.25"
     inkscape:showpageshadow="2"
     inkscape:pageopacity="0.0"
     inkscape:pagecheckerboard="0"
     inkscape:deskcolor="#d1d1d1" />
  <g
     id="g8"
     inkscape:groupmode="layer"
     inkscape:label="ink_ext_XXXXXX"
     transform="matrix(1.3333333,0,0,-1.3333333,0,2666.6667)">
    <g
       id="g10"
       transform="scale(0.1)">
      <path
         d="M 20000,0 H 0 V 20000 H 20000 V 0"
         style="fill:none;fill-opacity:1;fill-rule:nonzero;stroke:none"
         id="path12" />
      <path
         d="m 14400.1,7777.8 c -76,-461.2 -221.6,-906.5 -432.5,-1323.6 -311.3,-615.6 -727.4,-1119.1 -1236.9,-1496.5 -498.9,-369.6 -1100.2,-627.8 -1787.1,-767.6 C 9934.17,3984.9 8957.2,4095.3 8039.86,4518.5 6815.7,5083.2 6030.67,6043.4 5706.6,7372.6 c -200.31,821.7 -216.14,1623.7 -47.04,2383.8 166.47,748.3 516,1473.6 1038.9,2155.7 46.39,60.5 71.53,65.8 80.06,65.2 9.73,-0.6 37.44,-10.7 84.47,-91.2 101.41,-173.5 191.06,-315.6 299.02,-445 143.33,-171.7 348.7,-231.5 578.27,-168.3 222.14,61.1 361.92,211.8 415.46,447.7 17.71,78.1 34.91,157.6 51.55,234.5 53.99,249.6 109.81,507.8 191.12,751.4 139.48,417.9 403.74,792.8 785.43,1114.2 190.84,160.7 391.04,334.4 556.95,535.7 353.51,428.9 440.31,1051.3 460.61,1384.2 l 0.8,12.9 c 5.7,98.8 16.2,123.9 54,128 37.4,3.9 107.5,-31.4 136.2,-69 124.2,-162.9 248,-359.8 367.6,-550.2 102.9,-163.7 209.3,-333 314.8,-478.4 l 11.2,-18.6 c 4.6,-7.8 10.5,-17.7 17.2,-29 l 0.6,-1.2 c 0.9,-1.6 1.8,-3.2 2.7,-4.8 0.6,-0.9 1.1,-1.7 1.7,-2.6 86.7,-148.2 379.4,-669.5 549.4,-1226.5 4,-18.5 8.4,-35.4 13.3,-51.5 11,-35.8 21.2,-72.6 31.1,-108.2 l 7.3,-27 c 2.3,-8.9 4.6,-17.9 6.7,-26.9 l 11.5,-48.1 2.5,0.6 c 111.4,-424.4 172,-868 180.4,-1319.4 5.2,-282.5 153.8,-489.7 407.8,-568.4 256.6,-79.4 496.5,8.4 658.2,241.1 61.9,89.1 113.6,185.7 163.5,279.1 l 18.5,34.6 c 23.8,44.2 49,70.6 69.1,72.4 18.8,1.6 45.7,-17.7 74,-53.2 643.6,-808.3 1024.3,-1734.7 1131.7,-2753.4 51,-483.4 39.9,-952.7 -33.1,-1395 z m 475.7,2072.3 c -185.6,839.2 -583.5,1652.5 -1182.5,2417.4 -132.4,169.1 -321.7,254.2 -519.3,233.5 -201.2,-21.1 -379.3,-152 -476.5,-350.3 -6.9,-14 -13.6,-28.1 -20.4,-42.3 -30.4,-63.8 -59.1,-124.1 -99.5,-173 -4,-4.9 -8.6,-9.5 -14.1,-14.1 -22.7,-19.4 -54.6,-24.9 -83.2,-14.6 -11.9,4.4 -40.2,18.3 -46.2,53.8 -0.6,3.4 -1,6.8 -1.1,9.9 -16,547.3 -101.6,1087 -254.2,1604.1 l -2.7,9 c -1.4,5 -2.9,10.1 -4.4,15.1 -5.1,16.6 -10.9,33.3 -17.8,51.2 -164.9,542.6 -423.6,1033.8 -564,1279.7 -9.7,21.5 -21.2,42.7 -34.4,63 -4.4,7 -9,13.9 -13.5,20.8 l -9.9,15.1 -27.1,45.4 -1.3,-0.8 c -55.7,89.8 -111.8,191.9 -170.7,299.1 -80.1,145.8 -163,296.7 -246.7,416.9 -45.3,65.1 -96.3,126.6 -145.6,186 -28.8,34.7 -58.5,70.5 -86.4,106.2 -139.5,178.8 -274.6,281.3 -437.7,332.3 -79.5,29.1 -193.1,25.8 -277.3,-8.1 -298.88,-109 -446.72,-328.3 -465.13,-690 -28.49,-559.9 -277.09,-1069.4 -665,-1363 -768.32,-581.4 -1212.6,-1390.5 -1358.22,-2473.7 -5.31,-39.5 -35.54,-86 -57.62,-99 -17.97,2.1 -63.71,27.2 -81.81,51.6 -81.96,110.4 -153.96,227 -213.98,346.5 -89.08,177.4 -261.35,294.7 -460.81,313.8 -202.18,19.4 -396.64,-64.5 -519.98,-224.4 -1355.21,-1757.5 -1666.19,-3647.7 -924.29,-5617.9 304.41,-808.4 767.93,-1471.4 1377.68,-1970.7 594.54,-486.8 1334.52,-823.2 2199.36,-1000 365.09,-74.6 725.83,-111.8 1081.5,-111.8 817.7,0 1608.2,196.8 2360.6,588.9 1222.5,637.2 2024.1,1649.8 2382.6,3010 243.7,924.4 271.1,1827.6 81.6,2684.4"
         style="fill:#2e2d2d;fill-opacity:1;fill-rule:nonzero;stroke:none"
         id="path14" />
      <path
         d="m 8275.99,7372.5 -333.9,548.6 -205.05,-193.9 v -300.7 c 0,-73 -19.18,-129 -57.49,-168.3 -38.34,-39.3 -82.44,-58.9 -132.31,-58.9 -58.19,0 -103.92,19.4 -137.17,58.2 -33.25,38.8 -49.87,96 -49.87,171.8 V 9042 c 0,84 16.15,148 48.48,191.8 32.34,43.9 78.5,65.9 138.56,65.9 58.18,0 104.36,-19.9 138.54,-59.6 34.15,-39.7 51.26,-98.4 51.26,-176 V 8147 l 425.34,446.1 c 52.64,55.4 92.82,93.2 120.53,113.6 27.71,20.3 61.41,30.5 101.13,30.5 47.12,0 86.36,-15 117.78,-45.1 31.38,-30 47.09,-67.6 47.09,-112.9 0,-55.4 -51.25,-129.3 -153.77,-221.7 l -200.89,-184.2 387.91,-609.6 c 28.63,-45.3 49.2,-79.7 61.66,-103.2 12.48,-23.6 18.71,-46 18.71,-67.2 0,-60.1 -16.41,-107.4 -49.19,-142 -32.79,-34.7 -75.97,-52 -129.54,-52 -46.2,0 -81.73,12.5 -106.68,37.4 -24.94,24.9 -58.66,70.2 -101.13,135.8"
         style="fill:#2e2d2d;fill-opacity:1;fill-rule:nonzero;stroke:none"
         id="path16" />
      <path
         d="m 10246.1,7667.6 c 0,-47.1 -14.1,-97.5 -42.2,-151 -28.2,-53.6 -71.2,-104.6 -128.9,-153.1 -57.7,-48.5 -130.46,-87.5 -218.2,-117.1 -87.76,-29.5 -186.59,-44.3 -296.49,-44.3 -233.68,0 -416.12,68.1 -547.26,204.3 -131.17,136.2 -196.73,318.9 -196.73,548 0,155.1 30,292.3 90.06,411.4 60.03,119.2 146.85,211.3 260.47,276.5 113.59,65.1 249.37,97.6 407.31,97.6 97.9,0 187.73,-14.3 269.47,-42.9 81.75,-28.7 151.02,-65.6 207.87,-110.8 56.8,-45.3 100.2,-93.6 130.2,-144.8 30,-51.3 45,-99.1 45,-143.4 0,-45.3 -16.8,-83.6 -50.5,-115 -33.8,-31.4 -74.6,-47.1 -122.7,-47.1 -31.4,0 -57.47,8.1 -78.26,24.2 -20.77,16.2 -44.1,42.3 -69.96,78.3 -46.19,70.2 -94.44,122.8 -144.77,157.9 -50.35,35.1 -114.31,52.7 -191.89,52.7 -111.76,0 -201.82,-43.6 -270.16,-130.9 -68.37,-87.3 -102.54,-206.7 -102.54,-358.2 0,-71.1 8.78,-136.4 26.33,-196 17.54,-59.6 42.96,-110.4 76.21,-152.4 33.25,-42.1 73.42,-73.9 120.52,-95.6 47.12,-21.7 98.84,-32.6 155.18,-32.6 75.73,0 140.62,17.5 194.66,52.7 54.04,35.1 101.82,88.6 143.4,160.7 23.08,42.5 48,75.7 74.81,99.7 26.77,24 59.57,36.1 98.37,36.1 46.2,0 84.5,-17.6 115,-52.7 30.5,-35.1 45.7,-72.5 45.7,-112.2"
         style="fill:#2e2d2d;fill-opacity:1;fill-rule:nonzero;stroke:none"
         id="path18" />
      <path
         d="m 11506.9,7959.9 c -55.4,-20.3 -136,-41.8 -241.8,-64.4 -105.8,-22.6 -178.9,-39.3 -219.6,-49.9 -40.6,-10.6 -79.4,-31.4 -116.4,-62.3 -36.9,-31 -55.4,-74.2 -55.4,-129.6 0,-57.2 21.7,-106 65.1,-146.1 43.4,-40.2 100.3,-60.3 170.4,-60.3 74.9,0 143.9,16.4 207.2,49.2 63.2,32.7 109.7,75 139.2,126.8 34.2,57.2 51.3,151.4 51.3,282.6 z m 24.9,-547.2 c -91.4,-71.2 -179.9,-124.5 -265.3,-160 -85.4,-35.6 -181.3,-53.4 -287.5,-53.4 -97,0 -182.2,19.2 -255.6,57.5 -73.4,38.3 -130,90.3 -169.7,155.9 -39.7,65.5 -59.6,136.6 -59.6,213.3 0,103.5 32.8,191.7 98.4,264.6 65.5,73 155.6,122 270.1,146.9 24.1,5.5 83.6,18 178.8,37.4 95.1,19.4 176.6,37.2 244.5,53.4 67.9,16.1 141.5,35.7 221,58.8 -4.7,99.8 -24.8,173 -60.3,219.6 -35.6,46.7 -109.2,70 -221,70 -96,0 -168.3,-13.4 -216.8,-40.2 -48.5,-26.8 -90,-66.9 -124.7,-120.5 -34.6,-53.6 -59.1,-88.9 -73.4,-106 -14.4,-17.1 -45,-25.6 -92.2,-25.6 -42.4,0 -79.2,13.6 -110.1,40.8 -30.9,27.3 -46.4,62.1 -46.4,104.6 0,66.5 23.5,131.2 70.7,194 47.1,62.8 120.5,114.5 220.2,155.2 99.8,40.6 224,60.9 372.7,60.9 166.3,0 297,-19.6 392.1,-58.8 95.1,-39.3 162.3,-101.4 201.6,-186.4 39.3,-85 58.9,-197.7 58.9,-338 0,-88.7 -0.3,-164 -0.7,-225.9 -0.5,-61.9 -1.2,-130.7 -2.1,-206.4 0,-71.1 11.8,-145.3 35.3,-222.4 23.6,-77.1 35.4,-126.7 35.4,-148.9 0,-38.8 -18.3,-74.1 -54.8,-106 -36.5,-31.9 -77.8,-47.8 -123.9,-47.8 -38.8,0 -77.2,18.2 -115,54.7 -37.9,36.5 -78.1,89.4 -120.6,158.7"
         style="fill:#2e2d2d;fill-opacity:1;fill-rule:nonzero;stroke:none"
         id="path20" />
      <path
         d="m 12262,7429.3 v 1640.4 c 0,75.7 16.8,133 50.5,171.8 33.7,38.8 79.2,58.2 136.5,58.2 57.3,0 103.4,-19.2 138.5,-57.6 35.1,-38.3 52.7,-95.8 52.7,-172.4 V 7429.3 c 0,-76.7 -17.8,-134.2 -53.4,-172.5 -35.5,-38.3 -81.5,-57.5 -137.8,-57.5 -55.4,0 -100.4,19.9 -135.1,59.6 -34.6,39.7 -51.9,96.5 -51.9,170.4"
         style="fill:#2e2d2d;fill-opacity:1;fill-rule:nonzero;stroke:none"
         id="path22" />
    </g>
  </g>
</svg>
